<?xml version="1.0" standalone="no"?>
<!DOCTYPE svg PUBLIC "-//W3C//DTD SVG 20010904//EN"
 "http://www.w3.org/TR/2001/REC-SVG-20010904/DTD/svg10.dtd">
<svg version="1.0" xmlns="http://www.w3.org/2000/svg"
 width="512.000000pt" height="512.000000pt" viewBox="0 0 512.000000 512.000000"
 preserveAspectRatio="xMidYMid meet">
<metadata>
Created by potrace 1.16, written by Peter Selinger 2001-2019
</metadata>
<g transform="translate(0.000000,512.000000) scale(0.100000,-0.100000)"
stroke="none">
<path d="M1845 4612 c-180 -61 -247 -130 -447 -463 -81 -135 -156 -256 -166
-270 -11 -14 -44 -38 -74 -54 l-53 -30 -295 -6 c-316 -6 -327 -8 -445 -65 -85
-41 -210 -168 -253 -257 -65 -136 -63 -77 -60 -1359 l3 -1163 22 -66 c48 -139
162 -273 287 -335 140 -69 -27 -64 2195 -64 2236 0 2066 -5 2203 67 124 65
234 196 281 332 l22 66 3 1163 c3 1282 5 1223 -60 1359 -43 89 -168 216 -253
257 -118 57 -129 59 -445 65 l-295 6 -53 30 c-30 16 -63 40 -74 54 -10 14 -85
135 -166 270 -89 149 -169 268 -202 305 -71 77 -154 130 -252 161 l-79 25
-632 0 -632 0 -80 -28z m965 -1071 c122 -27 202 -56 310 -113 577 -298 821
-1003 550 -1585 -171 -366 -503 -624 -900 -698 -108 -20 -309 -20 -420 -1
-374 67 -702 311 -877 653 -175 342 -177 745 -6 1088 189 379 543 626 973 679
72 9 287 -4 370 -23z"/>
<path d="M2425 3250 c-376 -59 -680 -346 -756 -713 -21 -103 -25 -251 -8 -343
36 -208 154 -414 309 -543 175 -146 359 -211 594 -211 239 0 444 79 618 239
275 252 365 683 216 1028 -63 145 -178 289 -303 379 -83 59 -213 120 -310 144
-93 24 -271 34 -360 20z"/>
</g>
</svg>
