<?xml version="1.0" standalone="no"?>
<!DOCTYPE svg PUBLIC "-//W3C//DTD SVG 20010904//EN"
 "http://www.w3.org/TR/2001/REC-SVG-20010904/DTD/svg10.dtd">
<svg version="1.0" xmlns="http://www.w3.org/2000/svg"
 width="67.000000pt" height="67.000000pt" viewBox="0 0 67.000000 67.000000"
 preserveAspectRatio="xMidYMid meet">

<g transform="translate(0.000000,67.000000) scale(0.100000,-0.100000)"
fill="#3267b1" stroke="none">
<path d="M120 510 c0 -47 -4 -80 -10 -80 -5 0 -28 -16 -50 -36 -33 -30 -40
-43 -40 -74 0 -24 7 -43 20 -55 20 -18 20 -18 14 11 -7 37 22 76 77 104 52 27
70 25 28 -3 l-34 -23 -3 -147 -3 -147 216 0 215 0 0 50 c0 47 3 53 50 98 56
54 66 95 30 127 -20 18 -20 17 -20 -17 0 -40 -34 -78 -92 -102 -59 -25 -68
-18 -15 11 l47 26 0 127 0 126 -43 42 -43 42 -172 0 -172 0 0 -80z m338 -177
l35 -26 -31 -28 c-39 -35 -103 -53 -157 -44 -48 7 -125 50 -125 70 0 19 62 55
112 63 59 11 124 -3 166 -35z"/>
<path d="M334 315 c5 -13 2 -16 -10 -11 -10 4 -14 1 -12 -6 3 -7 13 -13 24
-13 22 0 27 36 5 43 -10 3 -12 0 -7 -13z"/>
<path d="M382 305 c0 -16 2 -22 5 -12 2 9 2 23 0 30 -3 6 -5 -1 -5 -18z"/>
<path d="M280 281 c0 -10 29 -36 34 -30 1 2 -6 12 -16 22 -10 9 -18 13 -18 8z"/>
</g>
</svg>
